<?xml version="1.0" encoding="UTF-8"?>
<!--!
Font Awesome Pro 6.2.0 by @fontawesome - https://fontawesome.com
License - https://fontawesome.com/license (Commercial License)
Copyright 2024 Fonticons, Inc.
-->
<svg xmlns="http://www.w3.org/2000/svg" style="display: none;">
  <symbol id="key" viewBox="0 0 512 512">
    <path d="M336 144C336 126.3 350.3 112 368 112C385.7 112 400 126.3 400 144C400 161.7 385.7 176 368 176C350.3 176 336 161.7 336 144zM336 352C326.5 352 317.2 351.3 308.1 349.8L280.1 376.1C276.5 381.5 270.4 384 264 384H224V424C224 437.3 213.3 448 200 448H160V488C160 501.3 149.3 512 136 512H24C10.75 512 0 501.3 0 488V376C0 369.6 2.529 363.5 7.029 359L162.2 203.9C160.8 194.8 160 185.5 160 176C160 78.8 238.8 0 336 0C433.2 0 512 78.8 512 176C512 273.2 433.2 352 336 352zM336 304C406.7 304 464 246.7 464 176C464 105.3 406.7 48 336 48C265.3 48 208 105.3 208 176C208 182.9 208.5 189.7 209.6 196.3L213.4 220.5L47.1 385.9V464H111.1V400H175.1V336H254.1L291.5 298.6L315.7 302.4C322.3 303.5 329.1 304 336 304z"></path>
  </symbol>
  <symbol id="envelope" viewBox="0 0 512 512">
    <path d="M0 128C0 92.65 28.65 64 64 64H448C483.3 64 512 92.65 512 128V384C512 419.3 483.3 448 448 448H64C28.65 448 0 419.3 0 384V128zM48 128V150.1L220.5 291.7C241.1 308.7 270.9 308.7 291.5 291.7L464 150.1V127.1C464 119.2 456.8 111.1 448 111.1H64C55.16 111.1 48 119.2 48 127.1L48 128zM48 212.2V384C48 392.8 55.16 400 64 400H448C456.8 400 464 392.8 464 384V212.2L322 328.8C283.6 360.3 228.4 360.3 189.1 328.8L48 212.2z"></path>
  </symbol>
  <symbol id="gear" viewBox="0 0 512 512">
    <path d="M160 256C160 202.1 202.1 160 256 160C309 160 352 202.1 352 256C352 309 309 352 256 352C202.1 352 160 309 160 256zM256 208C229.5 208 208 229.5 208 256C208 282.5 229.5 304 256 304C282.5 304 304 282.5 304 256C304 229.5 282.5 208 256 208zM293.1 .0003C315.3 .0003 334.6 15.19 339.8 36.74L347.6 69.21C356.1 73.36 364.2 78.07 371.9 83.28L404 73.83C425.3 67.56 448.1 76.67 459.2 95.87L496.3 160.1C507.3 179.3 503.8 203.6 487.8 218.9L463.5 241.1C463.8 246.6 464 251.3 464 256C464 260.7 463.8 265.4 463.5 270L487.8 293.1C503.8 308.4 507.3 332.7 496.3 351.9L459.2 416.1C448.1 435.3 425.3 444.4 404 438.2L371.9 428.7C364.2 433.9 356.1 438.6 347.6 442.8L339.8 475.3C334.6 496.8 315.3 512 293.1 512H218.9C196.7 512 177.4 496.8 172.2 475.3L164.4 442.8C155.9 438.6 147.8 433.9 140.1 428.7L107.1 438.2C86.73 444.4 63.94 435.3 52.85 416.1L15.75 351.9C4.66 332.7 8.168 308.4 24.23 293.1L48.47 270C48.16 265.4 48 260.7 48 255.1C48 251.3 48.16 246.6 48.47 241.1L24.23 218.9C8.167 203.6 4.66 179.3 15.75 160.1L52.85 95.87C63.94 76.67 86.73 67.56 107.1 73.83L140.1 83.28C147.8 78.07 155.9 73.36 164.4 69.21L172.2 36.74C177.4 15.18 196.7 0 218.9 0L293.1 .0003zM205.5 103.6L194.3 108.3C181.6 113.6 169.8 120.5 159.1 128.7L149.4 136.1L94.42 119.9L57.31 184.1L98.81 223.6L97.28 235.6C96.44 242.3 96 249.1 96 256C96 262.9 96.44 269.7 97.28 276.4L98.81 288.4L57.32 327.9L94.42 392.1L149.4 375.9L159.1 383.3C169.8 391.5 181.6 398.4 194.3 403.7L205.5 408.4L218.9 464H293.1L306.5 408.4L317.7 403.7C330.4 398.4 342.2 391.5 352.9 383.3L362.6 375.9L417.6 392.1L454.7 327.9L413.2 288.4L414.7 276.4C415.6 269.7 416 262.9 416 256C416 249.1 415.6 242.3 414.7 235.6L413.2 223.6L454.7 184.1L417.6 119.9L362.6 136.1L352.9 128.7C342.2 120.5 330.4 113.6 317.7 108.3L306.5 103.6L293.1 48H218.9L205.5 103.6z"></path>
  </symbol>
  <symbol id="xmark" viewBox="0 0 320 512">
    <path d="M312.1 375c9.369 9.369 9.369 24.57 0 33.94s-24.57 9.369-33.94 0L160 289.9l-119 119c-9.369 9.369-24.57 9.369-33.94 0s-9.369-24.57 0-33.94L126.1 256L7.027 136.1c-9.369-9.369-9.369-24.57 0-33.94s24.57-9.369 33.94 0L160 222.1l119-119c9.369-9.369 24.57-9.369 33.94 0s9.369 24.57 0 33.94L193.9 256L312.1 375z"></path>
  </symbol>
  <symbol id="robot" viewBox="0 0 640 512">
    <path d="M352 400c0 8.836-7.164 16-16 16h-32C295.2 416 288 408.8 288 400C288 391.2 295.2 384 304 384h32C344.8 384 352 391.2 352 400zM240 384H192c-8.836 0-16 7.162-16 16C176 408.8 183.2 416 192 416h48C248.8 416 256 408.8 256 400C256 391.2 248.8 384 240 384zM172 260C172 222.5 202.5 192 240 192c37.5 0 68 30.5 68 68c0 37.49-30.5 68-68 68C202.5 328 172 297.5 172 260zM220 260c0 11.04 8.955 20 20 20c11.05 0 20-8.955 20-20C260 248.1 251 240 240 240C228.1 240 220 248.1 220 260zM468 260c0 37.49-30.58 67.1-68.07 67.1c-.0254 0 .0254 0 0 0s.0254 0 0 0c-37.5 0-68.07-30.5-68.07-67.1c0-37.5 30.58-67.1 68.07-67.1c.0254 0-.0254 0 0 0s-.0254 0 0 0C437.4 192 468 222.5 468 260zM419.9 260c0-11.02-8.916-19.94-19.93-19.99C388.9 240.1 380 248.1 380 260c0 11.02 8.916 19.94 19.93 19.99C410.9 279.9 419.9 271 419.9 260zM448 384h-48c-8.836 0-16 7.162-16 16c0 8.836 7.164 16 16 16H448c8.836 0 16-7.164 16-16C464 391.2 456.8 384 448 384zM544 176v256c0 44.18-35.82 80-80 80h-288C131.8 512 96 476.2 96 432v-256C96 131.8 131.8 96 176 96h120V24C296 10.75 306.8 0 320 0s24 10.75 24 24V96h120C508.2 96 544 131.8 544 176zM496 176c0-17.64-14.36-32-32-32h-288c-17.64 0-32 14.36-32 32v256c0 17.64 14.36 32 32 32h288c17.64 0 32-14.36 32-32V176zM592.1 192H576v192h16.08C609.8 384 624 369.7 624 352V224C624 206.3 609.7 192 592.1 192zM16 224v128c0 17.67 14.26 32 31.94 32H64V192H48.03C30.36 192 16 206.3 16 224z"></path>
  </symbol>
  <symbol id="sun-bright" viewBox="0 0 512 512">
    <path d="M256 144C194.1 144 144 194.1 144 256c0 61.86 50.14 112 112 112s112-50.14 112-112C368 194.1 317.9 144 256 144zM256 320c-35.29 0-64-28.71-64-64c0-35.29 28.71-64 64-64s64 28.71 64 64C320 291.3 291.3 320 256 320zM256 112c13.25 0 24-10.75 24-24v-64C280 10.75 269.3 0 256 0S232 10.75 232 24v64C232 101.3 242.8 112 256 112zM256 400c-13.25 0-24 10.75-24 24v64C232 501.3 242.8 512 256 512s24-10.75 24-24v-64C280 410.8 269.3 400 256 400zM488 232h-64c-13.25 0-24 10.75-24 24s10.75 24 24 24h64C501.3 280 512 269.3 512 256S501.3 232 488 232zM112 256c0-13.25-10.75-24-24-24h-64C10.75 232 0 242.8 0 256s10.75 24 24 24h64C101.3 280 112 269.3 112 256zM391.8 357.8c-9.344-9.375-24.56-9.372-33.94 .0031s-9.375 24.56 0 33.93l45.25 45.28c4.672 4.688 10.83 7.031 16.97 7.031s12.28-2.344 16.97-7.031c9.375-9.375 9.375-24.56 0-33.94L391.8 357.8zM120.2 154.2c4.672 4.688 10.83 7.031 16.97 7.031S149.5 158.9 154.2 154.2c9.375-9.375 9.375-24.56 0-33.93L108.9 74.97c-9.344-9.375-24.56-9.375-33.94 0s-9.375 24.56 0 33.94L120.2 154.2zM374.8 161.2c6.141 0 12.3-2.344 16.97-7.031l45.25-45.28c9.375-9.375 9.375-24.56 0-33.94s-24.59-9.375-33.94 0l-45.25 45.28c-9.375 9.375-9.375 24.56 0 33.93C362.5 158.9 368.7 161.2 374.8 161.2zM120.2 357.8l-45.25 45.28c-9.375 9.375-9.375 24.56 0 33.94c4.688 4.688 10.83 7.031 16.97 7.031s12.3-2.344 16.97-7.031l45.25-45.28c9.375-9.375 9.375-24.56 0-33.93S129.6 348.4 120.2 357.8z"></path>
  </symbol>
  <symbol id="moon" viewBox="0 0 512 512">
    <path d="M421.6 379.9c-.6641 0-1.35 .0625-2.049 .1953c-11.24 2.143-22.37 3.17-33.32 3.17c-94.81 0-174.1-77.14-174.1-175.5c0-63.19 33.79-121.3 88.73-152.6c8.467-4.812 6.339-17.66-3.279-19.44c-11.2-2.078-29.53-3.746-40.9-3.746C132.3 31.1 32 132.2 32 256c0 123.6 100.1 224 223.8 224c69.04 0 132.1-31.45 173.8-82.93C435.3 389.1 429.1 379.9 421.6 379.9zM255.8 432C158.9 432 80 353 80 256c0-76.32 48.77-141.4 116.7-165.8C175.2 125 163.2 165.6 163.2 207.8c0 99.44 65.13 183.9 154.9 212.8C298.5 428.1 277.4 432 255.8 432z"></path>
  </symbol>
  <symbol id="triangle-exclamation" viewBox="0 0 512 512">
    <path d="M506.3 417l-213.3-364C284.8 39 270.4 32 256 32C241.6 32 227.2 39 218.1 53l-213.2 364C-10.59 444.9 9.851 480 42.74 480h426.6C502.1 480 522.6 445 506.3 417zM52.58 432L255.1 84.8L459.4 432H52.58zM256 337.1c-17.36 0-31.44 14.08-31.44 31.44c0 17.36 14.11 31.44 31.48 31.44s31.4-14.08 31.4-31.44C287.4 351.2 273.4 337.1 256 337.1zM232 184v96C232 293.3 242.8 304 256 304s24-10.75 24-24v-96C280 170.8 269.3 160 256 160S232 170.8 232 184z"></path>
  </symbol>
  <symbol id="shield-keyhole" viewBox="0 0 512 512">
    <path d="M466.5 83.69l-192-80.01C269.6 1.656 261.3 0 256.1 0C250.8 0 242.5 1.656 237.6 3.688l-192 80.01C27.69 91.08 16 108.6 16 127.1C16 385.2 205.2 512 255.1 512C307.1 512 496 383.8 496 127.1C496 108.6 484.3 91.08 466.5 83.69zM256.1 48.03C256.1 48.02 256.2 48.03 256.1 48.03L256.1 48.03zM255.1 464C163.5 425.5 64.06 303.9 64.06 128.1c0-.05 0 .05 0 0l190.8-79.64c.332-.1016 .7422-.3021 1.275-.3997L448 127.1C448 330.5 322.4 436.3 255.1 464zM200 208c0 22.3 13.13 41.4 32 50.41V328C232 341.3 242.8 352 256 352s24-10.75 24-24V258.4c18.87-9.008 32-28.11 32-50.41c0-30.93-25.07-56-56-56S200 177.1 200 208z"></path>
  </symbol>
  <symbol id="notdef" viewBox="0 0 384 512">
    <path d="M336 0h-288C21.49 0 0 21.49 0 48v416C0 490.5 21.49 512 48 512h288c26.51 0 48-21.49 48-48v-416C384 21.49 362.5 0 336 0zM336 90.16V421.8L221.2 256L336 90.16zM192 213.8L77.19 48h229.6L192 213.8zM162.8 256L48 421.8V90.16L162.8 256zM192 298.2L306.8 464H77.19L192 298.2z"></path>
  </symbol>
</svg>
