<?xml version="1.0" encoding="UTF-8"?>
<!--!
Font Awesome Pro 6.2.0 by @fontawesome - https://fontawesome.com
License - https://fontawesome.com/license (Commercial License)
Copyright 2023 Fonticons, Inc.
-->
<svg xmlns="http://www.w3.org/2000/svg" style="display: none;">
  <symbol id="triangle-exclamation" viewBox="0 0 512 512">
    <path d="M256 32c14.2 0 27.3 7.5 34.5 19.8l216 368c7.3 12.4 7.3 27.7 .2 40.1S486.3 480 472 480H40c-14.3 0-27.6-7.7-34.7-20.1s-7-27.8 .2-40.1l216-368C228.7 39.5 241.8 32 256 32zm0 128c-13.3 0-24 10.7-24 24V296c0 13.3 10.7 24 24 24s24-10.7 24-24V184c0-13.3-10.7-24-24-24zm32 224c0-17.7-14.3-32-32-32s-32 14.3-32 32s14.3 32 32 32s32-14.3 32-32z"></path>
  </symbol>
  <symbol id="notdef" viewBox="0 0 384 512">
    <path d="M64 390.3L153.5 256 64 121.7V390.3zM102.5 448H281.5L192 313.7 102.5 448zm128-192L320 390.3V121.7L230.5 256zM281.5 64H102.5L192 198.3 281.5 64zM0 48C0 21.5 21.5 0 48 0H336c26.5 0 48 21.5 48 48V464c0 26.5-21.5 48-48 48H48c-26.5 0-48-21.5-48-48V48z"></path>
  </symbol>
</svg>
